<mxfile host="app.diagrams.net" modified="2020-10-31T10:40:03.782Z" agent="5.0 (Macintosh; Intel Mac OS X 10_15_7) AppleWebKit/605.1.15 (KHTML, like Gecko) Version/14.0 Safari/605.1.15" etag="C4qLAWL3IYvEs_qZGFiQ" version="13.8.4" type="github">
  <diagram id="ueXdrf3rWP7pLI3ZZBUq" name="Страница 1">
    <mxGraphModel dx="706" dy="779" grid="1" gridSize="10" guides="1" tooltips="1" connect="1" arrows="1" fold="1" page="1" pageScale="1" pageWidth="827" pageHeight="1169" math="0" shadow="0">
      <root>
        <mxCell id="0" />
        <mxCell id="1" parent="0" />
        <mxCell id="-XAE0Pgtee5zWhCk_Lc--89" value="extend" style="edgeStyle=orthogonalEdgeStyle;rounded=0;orthogonalLoop=1;jettySize=auto;html=1;exitX=1;exitY=0;exitDx=0;exitDy=0;entryX=0;entryY=0.5;entryDx=0;entryDy=0;endArrow=block;endFill=0;" edge="1" parent="1" source="-XAE0Pgtee5zWhCk_Lc--1" target="-XAE0Pgtee5zWhCk_Lc--16">
          <mxGeometry relative="1" as="geometry" />
        </mxCell>
        <mxCell id="-XAE0Pgtee5zWhCk_Lc--1" value="Обращение" style="swimlane;fontStyle=0;childLayout=stackLayout;horizontal=1;startSize=26;fillColor=none;horizontalStack=0;resizeParent=1;resizeParentMax=0;resizeLast=0;collapsible=1;marginBottom=0;" vertex="1" parent="1">
          <mxGeometry x="310" y="120" width="160" height="268" as="geometry" />
        </mxCell>
        <mxCell id="-XAE0Pgtee5zWhCk_Lc--2" value="+ Код обращения" style="text;strokeColor=none;fillColor=none;align=left;verticalAlign=top;spacingLeft=4;spacingRight=4;overflow=hidden;rotatable=0;points=[[0,0.5],[1,0.5]];portConstraint=eastwest;" vertex="1" parent="-XAE0Pgtee5zWhCk_Lc--1">
          <mxGeometry y="26" width="160" height="26" as="geometry" />
        </mxCell>
        <mxCell id="-XAE0Pgtee5zWhCk_Lc--3" value="+ Проблема" style="text;strokeColor=none;fillColor=none;align=left;verticalAlign=top;spacingLeft=4;spacingRight=4;overflow=hidden;rotatable=0;points=[[0,0.5],[1,0.5]];portConstraint=eastwest;" vertex="1" parent="-XAE0Pgtee5zWhCk_Lc--1">
          <mxGeometry y="52" width="160" height="26" as="geometry" />
        </mxCell>
        <mxCell id="-XAE0Pgtee5zWhCk_Lc--4" value="+ Дата обращения" style="text;strokeColor=none;fillColor=none;align=left;verticalAlign=top;spacingLeft=4;spacingRight=4;overflow=hidden;rotatable=0;points=[[0,0.5],[1,0.5]];portConstraint=eastwest;" vertex="1" parent="-XAE0Pgtee5zWhCk_Lc--1">
          <mxGeometry y="78" width="160" height="26" as="geometry" />
        </mxCell>
        <mxCell id="-XAE0Pgtee5zWhCk_Lc--6" value="+ Оценка" style="text;strokeColor=none;fillColor=none;align=left;verticalAlign=top;spacingLeft=4;spacingRight=4;overflow=hidden;rotatable=0;points=[[0,0.5],[1,0.5]];portConstraint=eastwest;" vertex="1" parent="-XAE0Pgtee5zWhCk_Lc--1">
          <mxGeometry y="104" width="160" height="26" as="geometry" />
        </mxCell>
        <mxCell id="-XAE0Pgtee5zWhCk_Lc--5" value="" style="line;strokeWidth=1;fillColor=none;align=left;verticalAlign=middle;spacingTop=-1;spacingLeft=3;spacingRight=3;rotatable=0;labelPosition=right;points=[];portConstraint=eastwest;" vertex="1" parent="-XAE0Pgtee5zWhCk_Lc--1">
          <mxGeometry y="130" width="160" height="8" as="geometry" />
        </mxCell>
        <mxCell id="-XAE0Pgtee5zWhCk_Lc--8" value="+ Добавление()" style="text;strokeColor=none;fillColor=none;align=left;verticalAlign=top;spacingLeft=4;spacingRight=4;overflow=hidden;rotatable=0;points=[[0,0.5],[1,0.5]];portConstraint=eastwest;" vertex="1" parent="-XAE0Pgtee5zWhCk_Lc--1">
          <mxGeometry y="138" width="160" height="26" as="geometry" />
        </mxCell>
        <mxCell id="-XAE0Pgtee5zWhCk_Lc--9" value="+ Редактирование()" style="text;strokeColor=none;fillColor=none;align=left;verticalAlign=top;spacingLeft=4;spacingRight=4;overflow=hidden;rotatable=0;points=[[0,0.5],[1,0.5]];portConstraint=eastwest;" vertex="1" parent="-XAE0Pgtee5zWhCk_Lc--1">
          <mxGeometry y="164" width="160" height="26" as="geometry" />
        </mxCell>
        <mxCell id="-XAE0Pgtee5zWhCk_Lc--10" value="+ Удаление()" style="text;strokeColor=none;fillColor=none;align=left;verticalAlign=top;spacingLeft=4;spacingRight=4;overflow=hidden;rotatable=0;points=[[0,0.5],[1,0.5]];portConstraint=eastwest;" vertex="1" parent="-XAE0Pgtee5zWhCk_Lc--1">
          <mxGeometry y="190" width="160" height="26" as="geometry" />
        </mxCell>
        <mxCell id="-XAE0Pgtee5zWhCk_Lc--11" value="+ Поиск()" style="text;strokeColor=none;fillColor=none;align=left;verticalAlign=top;spacingLeft=4;spacingRight=4;overflow=hidden;rotatable=0;points=[[0,0.5],[1,0.5]];portConstraint=eastwest;" vertex="1" parent="-XAE0Pgtee5zWhCk_Lc--1">
          <mxGeometry y="216" width="160" height="26" as="geometry" />
        </mxCell>
        <mxCell id="-XAE0Pgtee5zWhCk_Lc--12" value="+ Сортировка()" style="text;strokeColor=none;fillColor=none;align=left;verticalAlign=top;spacingLeft=4;spacingRight=4;overflow=hidden;rotatable=0;points=[[0,0.5],[1,0.5]];portConstraint=eastwest;" vertex="1" parent="-XAE0Pgtee5zWhCk_Lc--1">
          <mxGeometry y="242" width="160" height="26" as="geometry" />
        </mxCell>
        <mxCell id="-XAE0Pgtee5zWhCk_Lc--13" value="Заявка" style="swimlane;fontStyle=0;childLayout=stackLayout;horizontal=1;startSize=26;fillColor=none;horizontalStack=0;resizeParent=1;resizeParentMax=0;resizeLast=0;collapsible=1;marginBottom=0;" vertex="1" parent="1">
          <mxGeometry x="560" y="80" width="160" height="242" as="geometry" />
        </mxCell>
        <mxCell id="-XAE0Pgtee5zWhCk_Lc--14" value="+ Код заявки" style="text;strokeColor=none;fillColor=none;align=left;verticalAlign=top;spacingLeft=4;spacingRight=4;overflow=hidden;rotatable=0;points=[[0,0.5],[1,0.5]];portConstraint=eastwest;" vertex="1" parent="-XAE0Pgtee5zWhCk_Lc--13">
          <mxGeometry y="26" width="160" height="26" as="geometry" />
        </mxCell>
        <mxCell id="-XAE0Pgtee5zWhCk_Lc--15" value="+ Статус" style="text;strokeColor=none;fillColor=none;align=left;verticalAlign=top;spacingLeft=4;spacingRight=4;overflow=hidden;rotatable=0;points=[[0,0.5],[1,0.5]];portConstraint=eastwest;" vertex="1" parent="-XAE0Pgtee5zWhCk_Lc--13">
          <mxGeometry y="52" width="160" height="26" as="geometry" />
        </mxCell>
        <mxCell id="-XAE0Pgtee5zWhCk_Lc--16" value="+ Дата выполнения" style="text;strokeColor=none;fillColor=none;align=left;verticalAlign=top;spacingLeft=4;spacingRight=4;overflow=hidden;rotatable=0;points=[[0,0.5],[1,0.5]];portConstraint=eastwest;" vertex="1" parent="-XAE0Pgtee5zWhCk_Lc--13">
          <mxGeometry y="78" width="160" height="26" as="geometry" />
        </mxCell>
        <mxCell id="-XAE0Pgtee5zWhCk_Lc--17" value="" style="line;strokeWidth=1;fillColor=none;align=left;verticalAlign=middle;spacingTop=-1;spacingLeft=3;spacingRight=3;rotatable=0;labelPosition=right;points=[];portConstraint=eastwest;" vertex="1" parent="-XAE0Pgtee5zWhCk_Lc--13">
          <mxGeometry y="104" width="160" height="8" as="geometry" />
        </mxCell>
        <mxCell id="-XAE0Pgtee5zWhCk_Lc--26" value="+ Добавление()" style="text;strokeColor=none;fillColor=none;align=left;verticalAlign=top;spacingLeft=4;spacingRight=4;overflow=hidden;rotatable=0;points=[[0,0.5],[1,0.5]];portConstraint=eastwest;" vertex="1" parent="-XAE0Pgtee5zWhCk_Lc--13">
          <mxGeometry y="112" width="160" height="26" as="geometry" />
        </mxCell>
        <mxCell id="-XAE0Pgtee5zWhCk_Lc--30" value="+ Сортировка()" style="text;strokeColor=none;fillColor=none;align=left;verticalAlign=top;spacingLeft=4;spacingRight=4;overflow=hidden;rotatable=0;points=[[0,0.5],[1,0.5]];portConstraint=eastwest;" vertex="1" parent="-XAE0Pgtee5zWhCk_Lc--13">
          <mxGeometry y="138" width="160" height="26" as="geometry" />
        </mxCell>
        <mxCell id="-XAE0Pgtee5zWhCk_Lc--29" value="+ Поиск()" style="text;strokeColor=none;fillColor=none;align=left;verticalAlign=top;spacingLeft=4;spacingRight=4;overflow=hidden;rotatable=0;points=[[0,0.5],[1,0.5]];portConstraint=eastwest;" vertex="1" parent="-XAE0Pgtee5zWhCk_Lc--13">
          <mxGeometry y="164" width="160" height="26" as="geometry" />
        </mxCell>
        <mxCell id="-XAE0Pgtee5zWhCk_Lc--28" value="+ Удаление()" style="text;strokeColor=none;fillColor=none;align=left;verticalAlign=top;spacingLeft=4;spacingRight=4;overflow=hidden;rotatable=0;points=[[0,0.5],[1,0.5]];portConstraint=eastwest;" vertex="1" parent="-XAE0Pgtee5zWhCk_Lc--13">
          <mxGeometry y="190" width="160" height="26" as="geometry" />
        </mxCell>
        <mxCell id="-XAE0Pgtee5zWhCk_Lc--27" value="+ Редактирование()" style="text;strokeColor=none;fillColor=none;align=left;verticalAlign=top;spacingLeft=4;spacingRight=4;overflow=hidden;rotatable=0;points=[[0,0.5],[1,0.5]];portConstraint=eastwest;" vertex="1" parent="-XAE0Pgtee5zWhCk_Lc--13">
          <mxGeometry y="216" width="160" height="26" as="geometry" />
        </mxCell>
        <mxCell id="-XAE0Pgtee5zWhCk_Lc--31" value="Сотрудники" style="swimlane;fontStyle=0;childLayout=stackLayout;horizontal=1;startSize=26;fillColor=none;horizontalStack=0;resizeParent=1;resizeParentMax=0;resizeLast=0;collapsible=1;marginBottom=0;" vertex="1" parent="1">
          <mxGeometry x="560" y="360" width="160" height="346" as="geometry" />
        </mxCell>
        <mxCell id="-XAE0Pgtee5zWhCk_Lc--32" value="+ Код сотрудника" style="text;strokeColor=none;fillColor=none;align=left;verticalAlign=top;spacingLeft=4;spacingRight=4;overflow=hidden;rotatable=0;points=[[0,0.5],[1,0.5]];portConstraint=eastwest;" vertex="1" parent="-XAE0Pgtee5zWhCk_Lc--31">
          <mxGeometry y="26" width="160" height="26" as="geometry" />
        </mxCell>
        <mxCell id="-XAE0Pgtee5zWhCk_Lc--33" value="+ ФИО" style="text;strokeColor=none;fillColor=none;align=left;verticalAlign=top;spacingLeft=4;spacingRight=4;overflow=hidden;rotatable=0;points=[[0,0.5],[1,0.5]];portConstraint=eastwest;" vertex="1" parent="-XAE0Pgtee5zWhCk_Lc--31">
          <mxGeometry y="52" width="160" height="26" as="geometry" />
        </mxCell>
        <mxCell id="-XAE0Pgtee5zWhCk_Lc--34" value="+ Дата рождения" style="text;strokeColor=none;fillColor=none;align=left;verticalAlign=top;spacingLeft=4;spacingRight=4;overflow=hidden;rotatable=0;points=[[0,0.5],[1,0.5]];portConstraint=eastwest;" vertex="1" parent="-XAE0Pgtee5zWhCk_Lc--31">
          <mxGeometry y="78" width="160" height="26" as="geometry" />
        </mxCell>
        <mxCell id="-XAE0Pgtee5zWhCk_Lc--35" value="+ Телефон" style="text;strokeColor=none;fillColor=none;align=left;verticalAlign=top;spacingLeft=4;spacingRight=4;overflow=hidden;rotatable=0;points=[[0,0.5],[1,0.5]];portConstraint=eastwest;" vertex="1" parent="-XAE0Pgtee5zWhCk_Lc--31">
          <mxGeometry y="104" width="160" height="26" as="geometry" />
        </mxCell>
        <mxCell id="-XAE0Pgtee5zWhCk_Lc--36" value="+ Логин" style="text;strokeColor=none;fillColor=none;align=left;verticalAlign=top;spacingLeft=4;spacingRight=4;overflow=hidden;rotatable=0;points=[[0,0.5],[1,0.5]];portConstraint=eastwest;" vertex="1" parent="-XAE0Pgtee5zWhCk_Lc--31">
          <mxGeometry y="130" width="160" height="26" as="geometry" />
        </mxCell>
        <mxCell id="-XAE0Pgtee5zWhCk_Lc--37" value="+ Пароль" style="text;strokeColor=none;fillColor=none;align=left;verticalAlign=top;spacingLeft=4;spacingRight=4;overflow=hidden;rotatable=0;points=[[0,0.5],[1,0.5]];portConstraint=eastwest;" vertex="1" parent="-XAE0Pgtee5zWhCk_Lc--31">
          <mxGeometry y="156" width="160" height="26" as="geometry" />
        </mxCell>
        <mxCell id="-XAE0Pgtee5zWhCk_Lc--38" value="+ Права" style="text;strokeColor=none;fillColor=none;align=left;verticalAlign=top;spacingLeft=4;spacingRight=4;overflow=hidden;rotatable=0;points=[[0,0.5],[1,0.5]];portConstraint=eastwest;" vertex="1" parent="-XAE0Pgtee5zWhCk_Lc--31">
          <mxGeometry y="182" width="160" height="26" as="geometry" />
        </mxCell>
        <mxCell id="-XAE0Pgtee5zWhCk_Lc--39" value="" style="line;strokeWidth=1;fillColor=none;align=left;verticalAlign=middle;spacingTop=-1;spacingLeft=3;spacingRight=3;rotatable=0;labelPosition=right;points=[];portConstraint=eastwest;" vertex="1" parent="-XAE0Pgtee5zWhCk_Lc--31">
          <mxGeometry y="208" width="160" height="8" as="geometry" />
        </mxCell>
        <mxCell id="-XAE0Pgtee5zWhCk_Lc--44" value="+ Сортировка()" style="text;strokeColor=none;fillColor=none;align=left;verticalAlign=top;spacingLeft=4;spacingRight=4;overflow=hidden;rotatable=0;points=[[0,0.5],[1,0.5]];portConstraint=eastwest;" vertex="1" parent="-XAE0Pgtee5zWhCk_Lc--31">
          <mxGeometry y="216" width="160" height="26" as="geometry" />
        </mxCell>
        <mxCell id="-XAE0Pgtee5zWhCk_Lc--43" value="+ Поиск()" style="text;strokeColor=none;fillColor=none;align=left;verticalAlign=top;spacingLeft=4;spacingRight=4;overflow=hidden;rotatable=0;points=[[0,0.5],[1,0.5]];portConstraint=eastwest;" vertex="1" parent="-XAE0Pgtee5zWhCk_Lc--31">
          <mxGeometry y="242" width="160" height="26" as="geometry" />
        </mxCell>
        <mxCell id="-XAE0Pgtee5zWhCk_Lc--42" value="+ Удаление()" style="text;strokeColor=none;fillColor=none;align=left;verticalAlign=top;spacingLeft=4;spacingRight=4;overflow=hidden;rotatable=0;points=[[0,0.5],[1,0.5]];portConstraint=eastwest;" vertex="1" parent="-XAE0Pgtee5zWhCk_Lc--31">
          <mxGeometry y="268" width="160" height="26" as="geometry" />
        </mxCell>
        <mxCell id="-XAE0Pgtee5zWhCk_Lc--41" value="+ Редактирование()" style="text;strokeColor=none;fillColor=none;align=left;verticalAlign=top;spacingLeft=4;spacingRight=4;overflow=hidden;rotatable=0;points=[[0,0.5],[1,0.5]];portConstraint=eastwest;" vertex="1" parent="-XAE0Pgtee5zWhCk_Lc--31">
          <mxGeometry y="294" width="160" height="26" as="geometry" />
        </mxCell>
        <mxCell id="-XAE0Pgtee5zWhCk_Lc--40" value="+ Добавление()" style="text;strokeColor=none;fillColor=none;align=left;verticalAlign=top;spacingLeft=4;spacingRight=4;overflow=hidden;rotatable=0;points=[[0,0.5],[1,0.5]];portConstraint=eastwest;" vertex="1" parent="-XAE0Pgtee5zWhCk_Lc--31">
          <mxGeometry y="320" width="160" height="26" as="geometry" />
        </mxCell>
        <mxCell id="-XAE0Pgtee5zWhCk_Lc--86" style="edgeStyle=orthogonalEdgeStyle;rounded=0;orthogonalLoop=1;jettySize=auto;html=1;exitX=0.5;exitY=0;exitDx=0;exitDy=0;entryX=0.35;entryY=1;entryDx=0;entryDy=0;entryPerimeter=0;endArrow=block;endFill=0;" edge="1" parent="1" source="-XAE0Pgtee5zWhCk_Lc--45" target="-XAE0Pgtee5zWhCk_Lc--12">
          <mxGeometry relative="1" as="geometry" />
        </mxCell>
        <mxCell id="-XAE0Pgtee5zWhCk_Lc--87" value="extend" style="edgeLabel;html=1;align=center;verticalAlign=middle;resizable=0;points=[];" vertex="1" connectable="0" parent="-XAE0Pgtee5zWhCk_Lc--86">
          <mxGeometry x="0.0075" y="21" relative="1" as="geometry">
            <mxPoint x="22" y="2" as="offset" />
          </mxGeometry>
        </mxCell>
        <mxCell id="-XAE0Pgtee5zWhCk_Lc--45" value="Абоненты" style="swimlane;fontStyle=0;childLayout=stackLayout;horizontal=1;startSize=26;fillColor=none;horizontalStack=0;resizeParent=1;resizeParentMax=0;resizeLast=0;collapsible=1;marginBottom=0;" vertex="1" parent="1">
          <mxGeometry x="320" y="480" width="160" height="268" as="geometry" />
        </mxCell>
        <mxCell id="-XAE0Pgtee5zWhCk_Lc--46" value="+ Код абонента" style="text;strokeColor=none;fillColor=none;align=left;verticalAlign=top;spacingLeft=4;spacingRight=4;overflow=hidden;rotatable=0;points=[[0,0.5],[1,0.5]];portConstraint=eastwest;" vertex="1" parent="-XAE0Pgtee5zWhCk_Lc--45">
          <mxGeometry y="26" width="160" height="26" as="geometry" />
        </mxCell>
        <mxCell id="-XAE0Pgtee5zWhCk_Lc--47" value="+ ФИО" style="text;strokeColor=none;fillColor=none;align=left;verticalAlign=top;spacingLeft=4;spacingRight=4;overflow=hidden;rotatable=0;points=[[0,0.5],[1,0.5]];portConstraint=eastwest;" vertex="1" parent="-XAE0Pgtee5zWhCk_Lc--45">
          <mxGeometry y="52" width="160" height="26" as="geometry" />
        </mxCell>
        <mxCell id="-XAE0Pgtee5zWhCk_Lc--48" value="+ Адрес" style="text;strokeColor=none;fillColor=none;align=left;verticalAlign=top;spacingLeft=4;spacingRight=4;overflow=hidden;rotatable=0;points=[[0,0.5],[1,0.5]];portConstraint=eastwest;" vertex="1" parent="-XAE0Pgtee5zWhCk_Lc--45">
          <mxGeometry y="78" width="160" height="26" as="geometry" />
        </mxCell>
        <mxCell id="-XAE0Pgtee5zWhCk_Lc--49" value="+ Телефон" style="text;strokeColor=none;fillColor=none;align=left;verticalAlign=top;spacingLeft=4;spacingRight=4;overflow=hidden;rotatable=0;points=[[0,0.5],[1,0.5]];portConstraint=eastwest;" vertex="1" parent="-XAE0Pgtee5zWhCk_Lc--45">
          <mxGeometry y="104" width="160" height="26" as="geometry" />
        </mxCell>
        <mxCell id="-XAE0Pgtee5zWhCk_Lc--50" value="" style="line;strokeWidth=1;fillColor=none;align=left;verticalAlign=middle;spacingTop=-1;spacingLeft=3;spacingRight=3;rotatable=0;labelPosition=right;points=[];portConstraint=eastwest;" vertex="1" parent="-XAE0Pgtee5zWhCk_Lc--45">
          <mxGeometry y="130" width="160" height="8" as="geometry" />
        </mxCell>
        <mxCell id="-XAE0Pgtee5zWhCk_Lc--55" value="+ Сортировка()" style="text;strokeColor=none;fillColor=none;align=left;verticalAlign=top;spacingLeft=4;spacingRight=4;overflow=hidden;rotatable=0;points=[[0,0.5],[1,0.5]];portConstraint=eastwest;" vertex="1" parent="-XAE0Pgtee5zWhCk_Lc--45">
          <mxGeometry y="138" width="160" height="26" as="geometry" />
        </mxCell>
        <mxCell id="-XAE0Pgtee5zWhCk_Lc--54" value="+ Поиск()" style="text;strokeColor=none;fillColor=none;align=left;verticalAlign=top;spacingLeft=4;spacingRight=4;overflow=hidden;rotatable=0;points=[[0,0.5],[1,0.5]];portConstraint=eastwest;" vertex="1" parent="-XAE0Pgtee5zWhCk_Lc--45">
          <mxGeometry y="164" width="160" height="26" as="geometry" />
        </mxCell>
        <mxCell id="-XAE0Pgtee5zWhCk_Lc--53" value="+ Удаление()" style="text;strokeColor=none;fillColor=none;align=left;verticalAlign=top;spacingLeft=4;spacingRight=4;overflow=hidden;rotatable=0;points=[[0,0.5],[1,0.5]];portConstraint=eastwest;" vertex="1" parent="-XAE0Pgtee5zWhCk_Lc--45">
          <mxGeometry y="190" width="160" height="26" as="geometry" />
        </mxCell>
        <mxCell id="-XAE0Pgtee5zWhCk_Lc--52" value="+ Редактирование()" style="text;strokeColor=none;fillColor=none;align=left;verticalAlign=top;spacingLeft=4;spacingRight=4;overflow=hidden;rotatable=0;points=[[0,0.5],[1,0.5]];portConstraint=eastwest;" vertex="1" parent="-XAE0Pgtee5zWhCk_Lc--45">
          <mxGeometry y="216" width="160" height="26" as="geometry" />
        </mxCell>
        <mxCell id="-XAE0Pgtee5zWhCk_Lc--51" value="+ Добавление()" style="text;strokeColor=none;fillColor=none;align=left;verticalAlign=top;spacingLeft=4;spacingRight=4;overflow=hidden;rotatable=0;points=[[0,0.5],[1,0.5]];portConstraint=eastwest;" vertex="1" parent="-XAE0Pgtee5zWhCk_Lc--45">
          <mxGeometry y="242" width="160" height="26" as="geometry" />
        </mxCell>
        <mxCell id="-XAE0Pgtee5zWhCk_Lc--56" value="Тип оборудования" style="swimlane;fontStyle=0;childLayout=stackLayout;horizontal=1;startSize=26;fillColor=none;horizontalStack=0;resizeParent=1;resizeParentMax=0;resizeLast=0;collapsible=1;marginBottom=0;" vertex="1" parent="1">
          <mxGeometry x="60" y="80" width="180" height="242" as="geometry" />
        </mxCell>
        <mxCell id="-XAE0Pgtee5zWhCk_Lc--57" value="+ Код типа оборудрвания" style="text;strokeColor=none;fillColor=none;align=left;verticalAlign=top;spacingLeft=4;spacingRight=4;overflow=hidden;rotatable=0;points=[[0,0.5],[1,0.5]];portConstraint=eastwest;" vertex="1" parent="-XAE0Pgtee5zWhCk_Lc--56">
          <mxGeometry y="26" width="180" height="26" as="geometry" />
        </mxCell>
        <mxCell id="-XAE0Pgtee5zWhCk_Lc--58" value="+ Название" style="text;strokeColor=none;fillColor=none;align=left;verticalAlign=top;spacingLeft=4;spacingRight=4;overflow=hidden;rotatable=0;points=[[0,0.5],[1,0.5]];portConstraint=eastwest;" vertex="1" parent="-XAE0Pgtee5zWhCk_Lc--56">
          <mxGeometry y="52" width="180" height="26" as="geometry" />
        </mxCell>
        <mxCell id="-XAE0Pgtee5zWhCk_Lc--59" value="+ Описание" style="text;strokeColor=none;fillColor=none;align=left;verticalAlign=top;spacingLeft=4;spacingRight=4;overflow=hidden;rotatable=0;points=[[0,0.5],[1,0.5]];portConstraint=eastwest;" vertex="1" parent="-XAE0Pgtee5zWhCk_Lc--56">
          <mxGeometry y="78" width="180" height="26" as="geometry" />
        </mxCell>
        <mxCell id="-XAE0Pgtee5zWhCk_Lc--60" value="" style="line;strokeWidth=1;fillColor=none;align=left;verticalAlign=middle;spacingTop=-1;spacingLeft=3;spacingRight=3;rotatable=0;labelPosition=right;points=[];portConstraint=eastwest;" vertex="1" parent="-XAE0Pgtee5zWhCk_Lc--56">
          <mxGeometry y="104" width="180" height="8" as="geometry" />
        </mxCell>
        <mxCell id="-XAE0Pgtee5zWhCk_Lc--65" value="+ Сортировка()" style="text;strokeColor=none;fillColor=none;align=left;verticalAlign=top;spacingLeft=4;spacingRight=4;overflow=hidden;rotatable=0;points=[[0,0.5],[1,0.5]];portConstraint=eastwest;" vertex="1" parent="-XAE0Pgtee5zWhCk_Lc--56">
          <mxGeometry y="112" width="180" height="26" as="geometry" />
        </mxCell>
        <mxCell id="-XAE0Pgtee5zWhCk_Lc--64" value="+ Поиск()" style="text;strokeColor=none;fillColor=none;align=left;verticalAlign=top;spacingLeft=4;spacingRight=4;overflow=hidden;rotatable=0;points=[[0,0.5],[1,0.5]];portConstraint=eastwest;" vertex="1" parent="-XAE0Pgtee5zWhCk_Lc--56">
          <mxGeometry y="138" width="180" height="26" as="geometry" />
        </mxCell>
        <mxCell id="-XAE0Pgtee5zWhCk_Lc--63" value="+ Удаление()" style="text;strokeColor=none;fillColor=none;align=left;verticalAlign=top;spacingLeft=4;spacingRight=4;overflow=hidden;rotatable=0;points=[[0,0.5],[1,0.5]];portConstraint=eastwest;" vertex="1" parent="-XAE0Pgtee5zWhCk_Lc--56">
          <mxGeometry y="164" width="180" height="26" as="geometry" />
        </mxCell>
        <mxCell id="-XAE0Pgtee5zWhCk_Lc--62" value="+ Редактирование()" style="text;strokeColor=none;fillColor=none;align=left;verticalAlign=top;spacingLeft=4;spacingRight=4;overflow=hidden;rotatable=0;points=[[0,0.5],[1,0.5]];portConstraint=eastwest;" vertex="1" parent="-XAE0Pgtee5zWhCk_Lc--56">
          <mxGeometry y="190" width="180" height="26" as="geometry" />
        </mxCell>
        <mxCell id="-XAE0Pgtee5zWhCk_Lc--61" value="+ Добавление()" style="text;strokeColor=none;fillColor=none;align=left;verticalAlign=top;spacingLeft=4;spacingRight=4;overflow=hidden;rotatable=0;points=[[0,0.5],[1,0.5]];portConstraint=eastwest;" vertex="1" parent="-XAE0Pgtee5zWhCk_Lc--56">
          <mxGeometry y="216" width="180" height="26" as="geometry" />
        </mxCell>
        <mxCell id="-XAE0Pgtee5zWhCk_Lc--71" value="Оборудование" style="swimlane;fontStyle=0;childLayout=stackLayout;horizontal=1;startSize=26;fillColor=none;horizontalStack=0;resizeParent=1;resizeParentMax=0;resizeLast=0;collapsible=1;marginBottom=0;" vertex="1" parent="1">
          <mxGeometry x="60" y="360" width="140" height="242" as="geometry" />
        </mxCell>
        <mxCell id="-XAE0Pgtee5zWhCk_Lc--72" value="+ Код оборудования" style="text;strokeColor=none;fillColor=none;align=left;verticalAlign=top;spacingLeft=4;spacingRight=4;overflow=hidden;rotatable=0;points=[[0,0.5],[1,0.5]];portConstraint=eastwest;" vertex="1" parent="-XAE0Pgtee5zWhCk_Lc--71">
          <mxGeometry y="26" width="140" height="26" as="geometry" />
        </mxCell>
        <mxCell id="-XAE0Pgtee5zWhCk_Lc--73" value="+ Название " style="text;strokeColor=none;fillColor=none;align=left;verticalAlign=top;spacingLeft=4;spacingRight=4;overflow=hidden;rotatable=0;points=[[0,0.5],[1,0.5]];portConstraint=eastwest;" vertex="1" parent="-XAE0Pgtee5zWhCk_Lc--71">
          <mxGeometry y="52" width="140" height="26" as="geometry" />
        </mxCell>
        <mxCell id="-XAE0Pgtee5zWhCk_Lc--74" value="+ Описание" style="text;strokeColor=none;fillColor=none;align=left;verticalAlign=top;spacingLeft=4;spacingRight=4;overflow=hidden;rotatable=0;points=[[0,0.5],[1,0.5]];portConstraint=eastwest;" vertex="1" parent="-XAE0Pgtee5zWhCk_Lc--71">
          <mxGeometry y="78" width="140" height="26" as="geometry" />
        </mxCell>
        <mxCell id="-XAE0Pgtee5zWhCk_Lc--75" value="" style="line;strokeWidth=1;fillColor=none;align=left;verticalAlign=middle;spacingTop=-1;spacingLeft=3;spacingRight=3;rotatable=0;labelPosition=right;points=[];portConstraint=eastwest;" vertex="1" parent="-XAE0Pgtee5zWhCk_Lc--71">
          <mxGeometry y="104" width="140" height="8" as="geometry" />
        </mxCell>
        <mxCell id="-XAE0Pgtee5zWhCk_Lc--80" value="+ Сортировка()" style="text;strokeColor=none;fillColor=none;align=left;verticalAlign=top;spacingLeft=4;spacingRight=4;overflow=hidden;rotatable=0;points=[[0,0.5],[1,0.5]];portConstraint=eastwest;" vertex="1" parent="-XAE0Pgtee5zWhCk_Lc--71">
          <mxGeometry y="112" width="140" height="26" as="geometry" />
        </mxCell>
        <mxCell id="-XAE0Pgtee5zWhCk_Lc--79" value="+ Поиск()" style="text;strokeColor=none;fillColor=none;align=left;verticalAlign=top;spacingLeft=4;spacingRight=4;overflow=hidden;rotatable=0;points=[[0,0.5],[1,0.5]];portConstraint=eastwest;" vertex="1" parent="-XAE0Pgtee5zWhCk_Lc--71">
          <mxGeometry y="138" width="140" height="26" as="geometry" />
        </mxCell>
        <mxCell id="-XAE0Pgtee5zWhCk_Lc--78" value="+ Удаление()" style="text;strokeColor=none;fillColor=none;align=left;verticalAlign=top;spacingLeft=4;spacingRight=4;overflow=hidden;rotatable=0;points=[[0,0.5],[1,0.5]];portConstraint=eastwest;" vertex="1" parent="-XAE0Pgtee5zWhCk_Lc--71">
          <mxGeometry y="164" width="140" height="26" as="geometry" />
        </mxCell>
        <mxCell id="-XAE0Pgtee5zWhCk_Lc--77" value="+ Редактирование()" style="text;strokeColor=none;fillColor=none;align=left;verticalAlign=top;spacingLeft=4;spacingRight=4;overflow=hidden;rotatable=0;points=[[0,0.5],[1,0.5]];portConstraint=eastwest;" vertex="1" parent="-XAE0Pgtee5zWhCk_Lc--71">
          <mxGeometry y="190" width="140" height="26" as="geometry" />
        </mxCell>
        <mxCell id="-XAE0Pgtee5zWhCk_Lc--76" value="+ Добавление()" style="text;strokeColor=none;fillColor=none;align=left;verticalAlign=top;spacingLeft=4;spacingRight=4;overflow=hidden;rotatable=0;points=[[0,0.5],[1,0.5]];portConstraint=eastwest;" vertex="1" parent="-XAE0Pgtee5zWhCk_Lc--71">
          <mxGeometry y="216" width="140" height="26" as="geometry" />
        </mxCell>
        <mxCell id="-XAE0Pgtee5zWhCk_Lc--84" style="edgeStyle=orthogonalEdgeStyle;rounded=0;orthogonalLoop=1;jettySize=auto;html=1;exitX=1;exitY=0.5;exitDx=0;exitDy=0;entryX=0;entryY=0.5;entryDx=0;entryDy=0;endArrow=block;endFill=0;" edge="1" parent="1" source="-XAE0Pgtee5zWhCk_Lc--74" target="-XAE0Pgtee5zWhCk_Lc--11">
          <mxGeometry relative="1" as="geometry" />
        </mxCell>
        <mxCell id="-XAE0Pgtee5zWhCk_Lc--85" value="extend" style="edgeLabel;html=1;align=center;verticalAlign=middle;resizable=0;points=[];" vertex="1" connectable="0" parent="-XAE0Pgtee5zWhCk_Lc--84">
          <mxGeometry x="-0.5" y="2" relative="1" as="geometry">
            <mxPoint as="offset" />
          </mxGeometry>
        </mxCell>
        <mxCell id="-XAE0Pgtee5zWhCk_Lc--88" value="extend" style="edgeStyle=orthogonalEdgeStyle;rounded=0;orthogonalLoop=1;jettySize=auto;html=1;exitX=0;exitY=0.5;exitDx=0;exitDy=0;entryX=1;entryY=0.5;entryDx=0;entryDy=0;endArrow=block;endFill=0;" edge="1" parent="1" source="-XAE0Pgtee5zWhCk_Lc--32" target="-XAE0Pgtee5zWhCk_Lc--10">
          <mxGeometry relative="1" as="geometry" />
        </mxCell>
        <mxCell id="-XAE0Pgtee5zWhCk_Lc--93" style="edgeStyle=orthogonalEdgeStyle;rounded=0;orthogonalLoop=1;jettySize=auto;html=1;exitX=0;exitY=0.5;exitDx=0;exitDy=0;entryX=0;entryY=0.5;entryDx=0;entryDy=0;endArrow=block;endFill=0;" edge="1" parent="1" source="-XAE0Pgtee5zWhCk_Lc--63" target="-XAE0Pgtee5zWhCk_Lc--72">
          <mxGeometry relative="1" as="geometry" />
        </mxCell>
        <mxCell id="-XAE0Pgtee5zWhCk_Lc--94" value="extend" style="edgeLabel;html=1;align=center;verticalAlign=middle;resizable=0;points=[];" vertex="1" connectable="0" parent="-XAE0Pgtee5zWhCk_Lc--93">
          <mxGeometry x="0.2637" y="2" relative="1" as="geometry">
            <mxPoint as="offset" />
          </mxGeometry>
        </mxCell>
        <mxCell id="-XAE0Pgtee5zWhCk_Lc--96" value="1" style="text;html=1;align=center;verticalAlign=middle;resizable=0;points=[];autosize=1;" vertex="1" parent="1">
          <mxGeometry x="470" y="160" width="20" height="20" as="geometry" />
        </mxCell>
        <mxCell id="-XAE0Pgtee5zWhCk_Lc--97" value="1..n" style="text;html=1;align=center;verticalAlign=middle;resizable=0;points=[];autosize=1;" vertex="1" parent="1">
          <mxGeometry x="520" y="180" width="40" height="20" as="geometry" />
        </mxCell>
        <mxCell id="-XAE0Pgtee5zWhCk_Lc--98" value="1" style="text;html=1;align=center;verticalAlign=middle;resizable=0;points=[];autosize=1;" vertex="1" parent="1">
          <mxGeometry x="530" y="410" width="20" height="20" as="geometry" />
        </mxCell>
        <mxCell id="-XAE0Pgtee5zWhCk_Lc--99" value="1..n" style="text;html=1;align=center;verticalAlign=middle;resizable=0;points=[];autosize=1;" vertex="1" parent="1">
          <mxGeometry x="470" y="330" width="40" height="20" as="geometry" />
        </mxCell>
        <mxCell id="-XAE0Pgtee5zWhCk_Lc--100" value="1" style="text;html=1;align=center;verticalAlign=middle;resizable=0;points=[];autosize=1;" vertex="1" parent="1">
          <mxGeometry x="350" y="460" width="20" height="20" as="geometry" />
        </mxCell>
        <mxCell id="-XAE0Pgtee5zWhCk_Lc--101" value="1..n" style="text;html=1;align=center;verticalAlign=middle;resizable=0;points=[];autosize=1;" vertex="1" parent="1">
          <mxGeometry x="310" y="390" width="40" height="20" as="geometry" />
        </mxCell>
        <mxCell id="-XAE0Pgtee5zWhCk_Lc--102" value="1" style="text;html=1;align=center;verticalAlign=middle;resizable=0;points=[];autosize=1;" vertex="1" parent="1">
          <mxGeometry x="200" y="460" width="20" height="20" as="geometry" />
        </mxCell>
        <mxCell id="-XAE0Pgtee5zWhCk_Lc--103" value="1..n" style="text;html=1;align=center;verticalAlign=middle;resizable=0;points=[];autosize=1;" vertex="1" parent="1">
          <mxGeometry x="270" y="320" width="40" height="20" as="geometry" />
        </mxCell>
        <mxCell id="-XAE0Pgtee5zWhCk_Lc--104" value="1" style="text;html=1;align=center;verticalAlign=middle;resizable=0;points=[];autosize=1;" vertex="1" parent="1">
          <mxGeometry x="30" y="220" width="20" height="20" as="geometry" />
        </mxCell>
        <mxCell id="-XAE0Pgtee5zWhCk_Lc--105" value="1..n" style="text;html=1;align=center;verticalAlign=middle;resizable=0;points=[];autosize=1;" vertex="1" parent="1">
          <mxGeometry x="10" y="420" width="40" height="20" as="geometry" />
        </mxCell>
      </root>
    </mxGraphModel>
  </diagram>
</mxfile>
